<svg width="1284" height="385" viewBox="0 0 1284 385" fill="none" xmlns="http://www.w3.org/2000/svg">
<path d="M149.271 100.141C185.34 101.8 217.897 116.912 242.047 140.572C268.363 166.348 284.688 202.284 284.688 242.027C284.688 256.767 282.437 270.993 278.268 284.363C260.251 342.131 206.348 384.063 142.651 384.063H427.339V383.987C364.012 383.616 310.513 341.809 292.572 284.311C367.448 280.32 426.927 218.339 426.927 142.477C426.927 141.845 426.927 141.205 426.919 140.572C426.732 126.507 424.5 112.927 420.508 100.124C402.481 42.364 348.588 0.439991 284.889 0.439991C221.191 0.439991 167.289 42.3733 149.271 100.141" fill="url(#paint0_linear)"/>
<path d="M420.507 100.123C424.499 112.925 426.732 126.505 426.917 140.571C426.925 141.204 426.925 141.843 426.925 142.476C426.925 218.337 367.447 280.317 292.571 284.309C310.512 341.809 364.011 383.615 427.337 383.985H428.189C506.628 383.985 570.217 320.396 570.217 241.957C570.217 163.509 506.628 99.92 428.189 99.92C425.611 99.92 423.051 99.9867 420.507 100.123" fill="url(#paint1_linear)"/>
<path d="M0.613342 242.027C0.613342 320.464 64.1853 384.045 142.625 384.063H142.651C142.903 384.063 143.147 384.063 143.4 384.055C143.164 384.063 143.047 384.063 143.047 384.063H308.635C253.108 373.66 242.585 346.553 241.669 343.849C258.405 327.575 271.143 307.207 278.268 284.363C282.437 270.993 284.688 256.767 284.688 242.027C284.688 202.284 268.363 166.348 242.047 140.572C217.897 116.912 185.34 101.8 149.271 100.141C147.073 100.039 144.867 99.988 142.651 99.988C64.2027 99.988 0.613342 163.587 0.613342 242.027Z" fill="url(#paint2_linear)"/>
<path d="M1283.33 141.851V343.867L1253.51 343.738V141.851H1283.33Z" fill="#3B9668"/>
<path d="M861.555 154.352C846.157 163.332 833.887 175.993 825.087 191.989C816.307 207.964 811.848 225.495 811.848 244.109C811.848 271.829 821.388 295.704 840.203 315.059C859.035 334.435 883.055 344.264 911.603 344.264C930.129 344.264 946.912 340.389 961.467 332.741C976.059 325.08 987.84 314.14 996.501 300.237L997.795 298.159L975.696 282.656L974.188 284.676C958.337 305.947 937.637 316.729 912.645 316.729C899.008 316.729 886.54 313.476 875.577 307.048C864.631 300.628 855.891 291.472 849.603 279.832C843.293 268.155 840.101 255.52 840.101 242.283C840.101 221.959 847.039 204.452 860.72 190.245C874.373 176.067 891.791 168.879 912.484 168.879C938.415 168.879 959.159 179.647 974.152 200.887L975.6 202.936L997.735 188.263L996.56 186.171C991.117 176.451 984.395 168.331 976.591 162.023C968.812 155.743 959.233 150.58 948.117 146.691C937.008 142.8 925.323 140.825 913.385 140.825C894.379 140.825 876.939 145.373 861.555 154.352" fill="url(#paint3_linear)"/>
<path d="M781.917 287.264C781.917 303.099 774.521 316.679 759.935 327.631C745.446 338.511 727.106 344.028 705.421 344.028C693.35 344.028 677.715 343.207 663.826 336.794C654.973 332.712 645.173 325.656 636.231 316.93L635.485 316.204L651.882 297.182L652.718 297.907C668.795 311.686 686.065 318.682 704.053 318.682C716.603 318.682 727.423 315.583 736.217 309.49C744.878 303.476 749.271 296.347 749.271 288.315C749.271 281.718 746.387 275.727 740.691 270.519C733.606 264.182 718.645 256.238 700.686 249.279C675.209 239.288 661.799 232.024 654.418 224.199C646.157 215.451 641.963 205.31 641.963 194.054C641.963 179.366 648.634 167.014 661.783 157.334C675.407 147.296 692.093 142.208 711.366 142.208C733.739 142.208 750.173 148.451 774.173 166.06L775.059 166.711L760.231 187.264L759.33 186.599C742.474 174.159 725.795 167.858 709.754 167.858C699.629 167.858 690.858 170.424 683.669 175.483C676.599 180.452 673.011 186.288 673.011 192.834C673.011 198.624 675.977 204.26 681.821 209.578C686.606 214.022 695.671 217.484 709.414 222.72C712.69 223.97 716.219 225.316 719.998 226.795C748.745 238.119 763.833 251.514 768.989 256.748C777.574 265.75 781.917 276.015 781.917 287.264Z" fill="#3853AE"/>
<path d="M1104.93 142.731L1028.43 343.867L1061.49 343.751L1083.23 285.824H1159.28L1181.25 343.751L1213.64 343.389L1137.81 142.731H1104.93ZM1121.03 185.212L1149.35 259.632H1093.38L1121.03 185.212Z" fill="url(#paint4_linear)"/>
<defs>
<linearGradient id="paint0_linear" x1="142.65" y1="192.251" x2="427.339" y2="192.251" gradientUnits="userSpaceOnUse">
<stop stop-color="#333333"/>
<stop offset="1" stop-color="#336699"/>
</linearGradient>
<linearGradient id="paint1_linear" x1="292.57" y1="241.953" x2="570.217" y2="241.953" gradientUnits="userSpaceOnUse">
<stop stop-color="#333333"/>
<stop offset="1" stop-color="#3853AE"/>
</linearGradient>
<linearGradient id="paint2_linear" x1="0.613372" y1="242.026" x2="308.635" y2="242.026" gradientUnits="userSpaceOnUse">
<stop stop-color="#3B9668"/>
<stop offset="1.1e-07" stop-color="#3B9668"/>
<stop offset="1" stop-color="#4684B7"/>
</linearGradient>
<linearGradient id="paint3_linear" x1="811.847" y1="242.545" x2="997.795" y2="242.545" gradientUnits="userSpaceOnUse">
<stop stop-color="#3853AE"/>
<stop offset="1" stop-color="#4586B0"/>
</linearGradient>
<linearGradient id="paint4_linear" x1="1028.43" y1="243.299" x2="1213.64" y2="243.299" gradientUnits="userSpaceOnUse">
<stop stop-color="#4684B7"/>
<stop offset="1" stop-color="#3B9668"/>
</linearGradient>
</defs>
</svg>
